<svg width="24" height="24" viewBox="0 0 24 24" fill="none" xmlns="http://www.w3.org/2000/svg">
<path d="M10.733 5.07599C13.0624 4.7984 15.4186 5.29081 17.4419 6.47804C19.4651 7.66527 21.0442 9.48207 21.938 11.651C22.0214 11.8755 22.0214 12.1225 21.938 12.347C21.5699 13.2377 21.0843 14.0751 20.494 14.837M14.084 14.158C13.5182 14.7045 12.7604 15.0068 11.9738 15C11.1872 14.9932 10.4348 14.6777 9.87856 14.1214C9.32233 13.5652 9.00683 12.8128 8.99999 12.0262C8.99316 11.2396 9.29554 10.4818 9.84201 9.91599" stroke="#1E3A5F" stroke-width="2" stroke-linecap="round" stroke-linejoin="round"/>
<path d="M17.479 17.499C16.1525 18.2848 14.6725 18.776 13.1394 18.9394C11.6063 19.1028 10.056 18.9345 8.59365 18.4459C7.13133 17.9573 5.79121 17.1599 4.66423 16.1077C3.53725 15.0556 2.64977 13.7734 2.06202 12.348C1.97868 12.1235 1.97868 11.8765 2.06202 11.652C2.94865 9.50186 4.50869 7.69725 6.50802 6.509M2.00002 2L22 22" stroke="#1E3A5F" stroke-width="2" stroke-linecap="round" stroke-linejoin="round"/>
</svg>
