<svg width="26" height="19" viewBox="0 0 26 19" fill="none" xmlns="http://www.w3.org/2000/svg">
<path d="M13 14.9C14.4773 14.9 15.733 14.375 16.767 13.325C17.8011 12.275 18.3182 11 18.3182 9.5C18.3182 8 17.8011 6.725 16.767 5.675C15.733 4.625 14.4773 4.1 13 4.1C11.5227 4.1 10.267 4.625 9.23295 5.675C8.19886 6.725 7.68182 8 7.68182 9.5C7.68182 11 8.19886 12.275 9.23295 13.325C10.267 14.375 11.5227 14.9 13 14.9ZM13 12.74C12.1136 12.74 11.3602 12.425 10.7398 11.795C10.1193 11.165 9.80909 10.4 9.80909 9.5C9.80909 8.6 10.1193 7.835 10.7398 7.205C11.3602 6.575 12.1136 6.26 13 6.26C13.8864 6.26 14.6398 6.575 15.2602 7.205C15.8807 7.835 16.1909 8.6 16.1909 9.5C16.1909 10.4 15.8807 11.165 15.2602 11.795C14.6398 12.425 13.8864 12.74 13 12.74ZM13 18.5C10.1242 18.5 7.50455 17.685 5.14091 16.055C2.77727 14.425 1.06364 12.24 0 9.5C1.06364 6.76 2.77727 4.575 5.14091 2.945C7.50455 1.315 10.1242 0.5 13 0.5C15.8758 0.5 18.4955 1.315 20.8591 2.945C23.2227 4.575 24.9364 6.76 26 9.5C24.9364 12.24 23.2227 14.425 20.8591 16.055C18.4955 17.685 15.8758 18.5 13 18.5ZM13 16.1C15.2258 16.1 17.2693 15.505 19.1307 14.315C20.992 13.125 22.4152 11.52 23.4 9.5C22.4152 7.48 20.992 5.875 19.1307 4.685C17.2693 3.495 15.2258 2.9 13 2.9C10.7742 2.9 8.73068 3.495 6.86932 4.685C5.00795 5.875 3.58485 7.48 2.6 9.5C3.58485 11.52 5.00795 13.125 6.86932 14.315C8.73068 15.505 10.7742 16.1 13 16.1Z" fill="#1E3A5F"/>
</svg>
